<svg fill="none" viewBox="0 0 700 700" xmlns="http://www.w3.org/2000/svg" xmlns:xlink="http://www.w3.org/1999/xlink">
  <rect width="700" height="700" fill="#000" />
  <g clip-path="url(#container)">
    <rect x="176.47" y="244.32" width="348" height="212" rx="16" fill="#000" />
    <g filter="url(#h)">
      <path
        d="m298.76 458.7c-101.12 6.252-177.83-26.5-187.13-33.634v85.615h468.65v-127.4c-38.576 39.75-180.4 69.172-281.52 75.423z"
        fill="url(#f)" />
    </g>
    <text fill="white" font-family="Avenir" font-size="19" font-weight="350" letter-spacing="-.04em"
      style="white-space:pre" xml:space="preserve">
      <tspan x="196.471" y="406.347">John Doe</tspan>
    </text>
    <text fill="white" font-family="Avenir" font-size="8" font-weight="350" letter-spacing="-.04em"
      style="white-space:pre" xml:space="preserve">
      <tspan x="473.471" y="428.36">01/01/23</tspan>
    </text>
    <text fill="white" font-family="Avenir" font-size="8" font-weight="350" letter-spacing="-.04em"
      style="white-space:pre" xml:space="preserve">
      <tspan x="196.471" y="428.36">0x90D53b872ce6421122B41a290aCdD22a5eD931bd</tspan>
    </text>

    <!-- Profile Image -->
    <path d="m246.47 364.32c27.614 0 50-22.386 50-50s-22.386-50-50-50c-27.615 0-50 22.386-50 50s22.385 50 50 50z"
      clip-rule="evenodd" fill="url(#a)" fill-rule="evenodd" />
    <!-- Profile Image Border -->
    <path
      d="m209.35 351.45c-7.343-7.342-12.343-16.697-14.369-26.881-2.025-10.184-0.986-20.74 2.988-30.333s10.703-17.792 19.336-23.561c8.634-5.769 18.784-8.848 29.168-8.848 10.383 0 20.534 3.079 29.167 8.848 8.634 5.769 15.363 13.968 19.336 23.561 3.974 9.594 5.014 20.15 2.988 30.334s-7.026 19.538-14.368 26.88"
      stroke="#fff" stroke-linecap="round" stroke-linejoin="round" stroke-width="5" />

    <!-- Token ID -->
    <rect x="226.94" y="359.84" width="39.067" height="8.9619" rx="4.481" fill="#fff" />

    <text fill="black" font-family="Avenir" font-size="8" font-weight="350" style="text-align:center">
      <tspan x="237.971" y="366.86">#1</tspan>
    </text>
  </g>
  <rect x="176.97" y="244.82" width="347" height="211" rx="15.5" stroke="url(#d)" />
  <rect x="176.97" y="244.82" width="347" height="211" rx="15.5" stroke="url(#c)" />
  <rect x="176.97" y="244.82" width="347" height="211" rx="15.5" stroke="url(#b)" />
  <defs>
    <clipPath id="container">
      <rect x="176.47" y="244.32" width="348" height="212" rx="16" fill="#fff" />
    </clipPath>
    <filter id="h" x="39.631" y="311.28" width="612.65" height="271.4" color-interpolation-filters="sRGB"
      filterUnits="userSpaceOnUse">
      <feFlood flood-opacity="0" result="BackgroundImageFix" />
      <feBlend in="SourceGraphic" in2="BackgroundImageFix" result="shape" />
      <feGaussianBlur stdDeviation="36" />
    </filter>

    <pattern id="a" width="1" height="1" patternContentUnits="objectBoundingBox">
      <image transform="scale(.0044444)" width="225" height="225" href="https://picsum.photos/500"
        clip-path="inset(0% round 15px)" />
    </pattern>

    <linearGradient id="f" x1="345.96" x2="345.96" y1="426.43" y2="466.86" gradientUnits="userSpaceOnUse">
      <stop stop-color="#FFFBFB" stop-opacity=".56" offset="0" />
      <stop stop-color="#E31D1C" offset="1" />
    </linearGradient>
    <radialGradient id="d" cx="0" cy="0" r="1"
      gradientTransform="translate(598.58 324.44) rotate(174.42) scale(570.89 144.67)" gradientUnits="userSpaceOnUse">
      <stop stop-color="#fff" offset="0" />
      <stop stop-color="#fff" stop-opacity="0" offset="1" />
    </radialGradient>
    <radialGradient id="c" cx="0" cy="0" r="1"
      gradientTransform="translate(145.32 121.07) rotate(30.64) scale(334.56 202.12)" gradientUnits="userSpaceOnUse">
      <stop stop-color="#fff" offset="0" />
      <stop stop-color="#fff" stop-opacity="0" offset="1" />
    </radialGradient>
    <radialGradient id="b" cx="0" cy="0" r="1"
      gradientTransform="translate(36.841 530.69) rotate(-5.3394) scale(428.27 108.06)" gradientUnits="userSpaceOnUse">
      <stop stop-color="#fff" offset="0" />
      <stop stop-color="#fff" stop-opacity="0" offset="1" />
    </radialGradient>
  </defs>
</svg>